<svg xmlns="http://www.w3.org/2000/svg" version="1.1" xmlns:xlink="http://www.w3.org/1999/xlink" xmlns:svgjs="http://svgjs.dev/svgjs" width="1000" height="623" viewBox="0 0 1000 623"><g transform="matrix(1,0,0,1,-0.6060606060606233,0.2522267206477409)"><svg viewBox="0 0 396 247" data-background-color="#ffffff" preserveAspectRatio="xMidYMid meet" height="623" width="1000" xmlns="http://www.w3.org/2000/svg" xmlns:xlink="http://www.w3.org/1999/xlink"><g id="tight-bounds" transform="matrix(1,0,0,1,0.2400000000000091,-0.09999999999999432)"><svg viewBox="0 0 395.52 247.2" height="247.2" width="395.52"><g><svg></svg></g><g><svg viewBox="0 0 395.52 247.2" height="247.2" width="395.52"><g transform="matrix(1,0,0,1,75.54432000000001,76.18497754469607)"><svg viewBox="0 0 244.43135999999996 94.83004491060785" height="94.83004491060785" width="244.43135999999996"><g><svg viewBox="0 0 244.43135999999996 94.83004491060785" height="94.83004491060785" width="244.43135999999996"><g><svg viewBox="0 0 244.43135999999996 94.83004491060785" height="94.83004491060785" width="244.43135999999996"><g><svg viewBox="0 0 244.43135999999996 94.83004491060785" height="94.83004491060785" width="244.43135999999996"><g id="textblocktransform"><svg viewBox="0 0 244.43135999999996 94.83004491060785" height="94.83004491060785" width="244.43135999999996" id="textblock"><g><svg viewBox="0 0 244.43135999999996 94.83004491060785" height="94.83004491060785" width="244.43135999999996"><g transform="matrix(1,0,0,1,0,0)"><svg width="244.43135999999996" viewBox="3.450000047683716 -31.950000762939453 83.88999938964844 32.54999923706055" height="94.83004491060785" data-palette-color="#0063db"><path d="M15.1 0.6L15.1 0.6Q11.95 0.6 9.33-0.54 6.7-1.68 5.1-3.9 3.5-6.13 3.45-9.4L3.45-9.4 7.25-9.4Q7.25-7.2 8.33-5.79 9.4-4.38 11.18-3.69 12.95-3 15.05-3L15.05-3Q17.32-3 19-3.73 20.68-4.45 21.59-5.64 22.5-6.83 22.5-8.25L22.5-8.25Q22.5-10.25 21.28-11.49 20.05-12.73 17.65-13.5L17.65-13.5 12.1-15.45Q8.2-16.85 6.2-18.65 4.2-20.45 4.2-23.7L4.2-23.7Q4.2-27.35 7.01-29.65 9.83-31.95 15-31.95L15-31.95Q19.8-31.95 22.5-29.74 25.2-27.53 25.6-23.8L25.6-23.8 21.75-23.8Q21.38-25.98 19.71-27.19 18.05-28.4 15-28.4L15-28.4Q11.9-28.4 10.18-27.03 8.45-25.65 8.45-23.55L8.45-23.55Q8.45-21.83 9.54-20.81 10.63-19.8 12.95-19L12.95-19 19.45-16.75Q22.83-15.63 24.79-13.6 26.75-11.58 26.75-8.35L26.75-8.35Q26.75-5.85 25.41-3.83 24.08-1.8 21.48-0.6 18.88 0.6 15.1 0.6ZM38.67-16.25L53.32-31.4 58.72-31.4 38.67-10.75 38.67-16.25ZM41.52-15.6L44.32-18.15 59.57 0 54.47 0 41.52-15.6ZM35.27 0L35.27-31.4 39.22-31.4 39.22 0 35.27 0ZM75.69 0.6L75.69 0.6Q72.55 0.6 69.92-0.54 67.3-1.68 65.69-3.9 64.09-6.13 64.05-9.4L64.05-9.4 67.84-9.4Q67.84-7.2 68.92-5.79 70-4.38 71.77-3.69 73.55-3 75.64-3L75.64-3Q77.92-3 79.59-3.73 81.27-4.45 82.18-5.64 83.09-6.83 83.09-8.25L83.09-8.25Q83.09-10.25 81.87-11.49 80.64-12.73 78.25-13.5L78.25-13.5 72.69-15.45Q68.8-16.85 66.8-18.65 64.8-20.45 64.8-23.7L64.8-23.7Q64.8-27.35 67.61-29.65 70.42-31.95 75.59-31.95L75.59-31.95Q80.39-31.95 83.09-29.74 85.8-27.53 86.19-23.8L86.19-23.8 82.34-23.8Q81.97-25.98 80.31-27.19 78.64-28.4 75.59-28.4L75.59-28.4Q72.5-28.4 70.77-27.03 69.05-25.65 69.05-23.55L69.05-23.55Q69.05-21.83 70.13-20.81 71.22-19.8 73.55-19L73.55-19 80.05-16.75Q83.42-15.63 85.38-13.6 87.34-11.58 87.34-8.35L87.34-8.35Q87.34-5.85 86.01-3.83 84.67-1.8 82.07-0.6 79.47 0.6 75.69 0.6Z" opacity="1" transform="matrix(1,0,0,1,0,0)" fill="#0063db" class="wordmark-text-0" data-fill-palette-color="primary" id="text-0"></path></svg></g></svg></g></svg></g></svg></g></svg></g></svg></g></svg></g><path d="M172.618 70.185L172.618 17.744 384.329 17.744 384.329 229.456 172.618 229.456 172.618 177.015 181.17 177.015 181.17 220.904 375.778 220.904 375.778 26.296 181.17 26.296 181.17 70.185Z" fill="#0063db" stroke="transparent" data-fill-palette-color="primary"></path></svg></g><defs></defs></svg><rect width="395.52" height="247.2" fill="none" stroke="none" visibility="hidden"></rect></g></svg></g></svg>