<svg xmlns="http://www.w3.org/2000/svg" version="1.1" xmlns:xlink="http://www.w3.org/1999/xlink" xmlns:svgjs="http://svgjs.dev/svgjs" width="1000" height="1000" viewBox="0 0 1000 1000"><g transform="matrix(1,0,0,1,-0.14221556886212738,-0.14221556886229791)"><svg viewBox="0 0 334 334" data-background-color="#ffffff" preserveAspectRatio="xMidYMid meet" height="1000" width="1000" xmlns="http://www.w3.org/2000/svg" xmlns:xlink="http://www.w3.org/1999/xlink"><g id="tight-bounds" transform="matrix(1,0,0,1,0.04749999999998522,0.04750000000001364)"><svg viewBox="0 0 333.90454557049503 333.90454557049503" height="333.90454557049503" width="333.90454557049503"><g><svg></svg></g><g><svg viewBox="0 0 333.90454557049503 333.90454557049503" height="333.90454557049503" width="333.90454557049503"><g><path d="M0 166.952c0-92.205 74.747-166.952 166.952-166.952 92.205 0 166.952 74.747 166.953 166.952 0 92.205-74.747 166.952-166.953 166.953-92.205 0-166.952-74.747-166.952-166.953zM166.952 325.47c87.547 0 158.518-70.971 158.518-158.518 0-87.547-70.971-158.518-158.518-158.518-87.547 0-158.518 70.971-158.518 158.518 0 87.547 70.971 158.518 158.518 158.518z" data-fill-palette-color="tertiary" fill="#ff4136" stroke="transparent"></path><ellipse rx="160.27418187383762" ry="160.27418187383762" cx="166.95227278524752" cy="166.95227278524752" fill="#ff4136" stroke="transparent" stroke-width="0" fill-opacity="1" data-fill-palette-color="tertiary"></ellipse></g><g transform="matrix(1,0,0,1,105.50278160007858,71.17305217166896)"><svg viewBox="0 0 122.89898237033786 191.55844122715712" height="191.55844122715712" width="122.89898237033786"><g><svg viewBox="0 0 122.89898237033786 191.55844122715712" height="191.55844122715712" width="122.89898237033786"><g><svg viewBox="0 0 213.1584412271571 332.24277327897414" height="191.55844122715712" width="122.89898237033786"><g transform="matrix(1,0,0,1,0,170.03239019157695)"><svg viewBox="0 0 213.1584412271571 162.2103830873972" height="162.2103830873972" width="213.1584412271571"><g id="textblocktransform"><svg viewBox="0 0 213.1584412271571 162.2103830873972" height="162.2103830873972" width="213.1584412271571" id="textblock"><g><svg viewBox="0 0 213.1584412271571 162.2103830873972" height="162.2103830873972" width="213.1584412271571"><g transform="matrix(1,0,0,1,0,0)"><svg width="213.1584412271571" viewBox="2.5899999141693115 -37.9900016784668 50.560001373291016 38.480003356933594" height="162.2103830873972" data-palette-color="#ffffff"><path d="M25.05-9.5L25.05-9.5Q25.05-4.79 21.63-2.15 18.21 0.49 12.35 0.49L12.35 0.49Q6.01 0.49 2.59-1.15L2.59-1.15 2.59-5.15Q4.79-4.22 7.37-3.69 9.96-3.15 12.5-3.15L12.5-3.15Q16.65-3.15 18.75-4.72 20.85-6.3 20.85-9.11L20.85-9.11Q20.85-10.96 20.1-12.15 19.36-13.33 17.61-14.33 15.87-15.33 12.3-16.6L12.3-16.6Q7.32-18.38 5.19-20.83 3.05-23.27 3.05-27.2L3.05-27.2Q3.05-31.32 6.15-33.76 9.25-36.21 14.36-36.21L14.36-36.21Q19.68-36.21 24.15-34.25L24.15-34.25 22.85-30.64Q18.43-32.5 14.26-32.5L14.26-32.5Q10.96-32.5 9.11-31.08 7.25-29.66 7.25-27.15L7.25-27.15Q7.25-25.29 7.93-24.11 8.62-22.92 10.24-21.94 11.87-20.95 15.21-19.75L15.21-19.75Q20.83-17.75 22.94-15.45 25.05-13.16 25.05-9.5ZM35.54-13.7L35.74-13.7Q36.79-15.19 38.94-17.6L38.94-17.6 47.58-26.76 52.39-26.76 41.55-15.36 53.15 0 48.24 0 38.79-12.65 35.74-10.01 35.74 0 31.74 0 31.74-37.99 35.74-37.99 35.74-17.85Q35.74-16.5 35.54-13.7L35.54-13.7Z" opacity="1" transform="matrix(1,0,0,1,0,0)" fill="#ffffff" class="wordmark-text-0" data-fill-palette-color="quaternary" id="text-0"></path></svg></g></svg></g></svg></g></svg></g><g transform="matrix(1,0,0,1,40.713262274387006,0)"><svg viewBox="0 0 131.7319166783831 131.73841179383658" height="131.73841179383658" width="131.7319166783831"><g><svg xmlns="http://www.w3.org/2000/svg" xmlns:xlink="http://www.w3.org/1999/xlink" version="1.1" x="0" y="0" viewBox="0.35832977294921875 0.3587226867675781 89.28325653076172 89.28765869140625" enable-background="new 0 0 90 90" xml:space="preserve" height="131.73841179383658" width="131.7319166783831" class="icon-icon-0" data-fill-palette-color="quaternary" id="icon-0"><polygon points="57.928,58.169 57.875,76.027 45.397,63.548 45.397,45.639 " fill="#ffffff" data-fill-palette-color="quaternary"></polygon><polygon points="76.027,57.875 58.475,57.927 45.826,45.279 63.432,45.279 " fill="#ffffff" data-fill-palette-color="quaternary"></polygon><polygon points="76.027,32.125 63.432,44.721 45.707,44.721 58.355,32.073 " fill="#ffffff" data-fill-palette-color="quaternary"></polygon><polygon points="44.838,45.59 44.838,63.314 32.125,76.027 32.074,58.355 " fill="#ffffff" data-fill-palette-color="quaternary"></polygon><polygon points="57.928,31.712 45.397,44.243 45.397,26.452 57.875,13.974 " fill="#ffffff" data-fill-palette-color="quaternary"></polygon><polygon points="44.838,26.687 44.838,44.291 32.074,31.526 32.125,13.974 " fill="#ffffff" data-fill-palette-color="quaternary"></polygon><polygon points="44.479,44.721 26.569,44.721 13.974,32.125 31.832,32.073 " fill="#ffffff" data-fill-palette-color="quaternary"></polygon><polygon points="44.36,45.279 31.712,57.927 13.974,57.875 26.569,45.279 " fill="#ffffff" data-fill-palette-color="quaternary"></polygon><rect x="58.48" y="58.48" width="18.049" height="18.049" fill="#ffffff" data-fill-palette-color="quaternary"></rect><polygon points="76.527,13.474 76.527,31.516 58.914,31.516 58.912,31.518 58.484,31.516 58.484,13.474 " fill="#ffffff" data-fill-palette-color="quaternary"></polygon><polygon points="31.518,30.971 31.516,31.516 13.474,31.516 13.474,13.474 31.516,13.474 31.516,30.968 " fill="#ffffff" data-fill-palette-color="quaternary"></polygon><rect x="13.471" y="58.48" width="18.05" height="18.049" fill="#ffffff" data-fill-palette-color="quaternary"></rect><rect x="67.864" y="35.981" transform="matrix(0.7071 -0.7071 0.7071 0.7071 -9.3022 67.5465)" width="18.042" height="18.042" fill="#ffffff" data-fill-palette-color="quaternary"></rect><rect x="35.979" y="4.094" transform="matrix(0.7071 -0.7071 0.7071 0.7071 3.9068 35.6621)" width="18.042" height="18.042" fill="#ffffff" data-fill-palette-color="quaternary"></rect><rect x="4.095" y="35.98" transform="matrix(0.7071 -0.7071 0.7071 0.7071 -27.9787 22.4536)" width="18.041" height="18.041" fill="#ffffff" data-fill-palette-color="quaternary"></rect><rect x="35.98" y="67.865" transform="matrix(0.7071 -0.7071 0.7071 0.7071 -41.1877 54.3437)" width="18.04" height="18.041" fill="#ffffff" data-fill-palette-color="quaternary"></rect></svg></g></svg></g><g></g></svg></g></svg></g></svg></g></svg></g><defs></defs></svg><rect width="333.90454557049503" height="333.90454557049503" fill="none" stroke="none" visibility="hidden"></rect></g></svg></g></svg>